<mxfile host="app.diagrams.net" modified="2020-11-05T13:45:23.972Z" agent="5.0 (Macintosh; Intel Mac OS X 10_15_6) AppleWebKit/605.1.15 (KHTML, like Gecko) Version/13.1.2 Safari/605.1.15" etag="V29FpBtO2rQvTDgqEgkI" version="13.9.1" type="github">
  <diagram id="1LjMYATjwQS-yFmROx1N" name="Page-1">
    <mxGraphModel dx="1100" dy="561" grid="1" gridSize="10" guides="1" tooltips="1" connect="1" arrows="1" fold="1" page="1" pageScale="1" pageWidth="827" pageHeight="1169" math="0" shadow="0">
      <root>
        <mxCell id="0" />
        <mxCell id="1" parent="0" />
        <mxCell id="tvVa9TLekLzWIUIdBBqW-1" value="Attract Mode" style="rounded=1;whiteSpace=wrap;html=1;" vertex="1" parent="1">
          <mxGeometry x="50" y="30" width="120" height="60" as="geometry" />
        </mxCell>
        <mxCell id="tvVa9TLekLzWIUIdBBqW-8" value="" style="edgeStyle=orthogonalEdgeStyle;rounded=0;orthogonalLoop=1;jettySize=auto;html=1;entryX=0.5;entryY=0;entryDx=0;entryDy=0;" edge="1" parent="1" source="tvVa9TLekLzWIUIdBBqW-3" target="tvVa9TLekLzWIUIdBBqW-4">
          <mxGeometry relative="1" as="geometry" />
        </mxCell>
        <mxCell id="tvVa9TLekLzWIUIdBBqW-9" value="" style="edgeStyle=orthogonalEdgeStyle;rounded=0;orthogonalLoop=1;jettySize=auto;html=1;" edge="1" parent="1" source="tvVa9TLekLzWIUIdBBqW-3" target="tvVa9TLekLzWIUIdBBqW-5">
          <mxGeometry relative="1" as="geometry" />
        </mxCell>
        <mxCell id="tvVa9TLekLzWIUIdBBqW-3" value="Base Scoring Mode" style="rounded=1;whiteSpace=wrap;html=1;" vertex="1" parent="1">
          <mxGeometry x="460" y="140" width="120" height="60" as="geometry" />
        </mxCell>
        <mxCell id="tvVa9TLekLzWIUIdBBqW-11" style="edgeStyle=orthogonalEdgeStyle;rounded=0;orthogonalLoop=1;jettySize=auto;html=1;entryX=0;entryY=0.5;entryDx=0;entryDy=0;exitX=0.5;exitY=1;exitDx=0;exitDy=0;" edge="1" parent="1" source="tvVa9TLekLzWIUIdBBqW-4" target="tvVa9TLekLzWIUIdBBqW-3">
          <mxGeometry relative="1" as="geometry">
            <Array as="points">
              <mxPoint x="410" y="350" />
              <mxPoint x="320" y="350" />
              <mxPoint x="320" y="170" />
            </Array>
          </mxGeometry>
        </mxCell>
        <mxCell id="tvVa9TLekLzWIUIdBBqW-4" value="Bonus HurryUp Mode" style="rounded=1;whiteSpace=wrap;html=1;" vertex="1" parent="1">
          <mxGeometry x="350" y="270" width="120" height="60" as="geometry" />
        </mxCell>
        <mxCell id="tvVa9TLekLzWIUIdBBqW-12" style="edgeStyle=orthogonalEdgeStyle;rounded=0;orthogonalLoop=1;jettySize=auto;html=1;entryX=1;entryY=0.5;entryDx=0;entryDy=0;" edge="1" parent="1" source="tvVa9TLekLzWIUIdBBqW-5" target="tvVa9TLekLzWIUIdBBqW-3">
          <mxGeometry relative="1" as="geometry">
            <Array as="points">
              <mxPoint x="610" y="350" />
              <mxPoint x="720" y="350" />
              <mxPoint x="720" y="170" />
            </Array>
          </mxGeometry>
        </mxCell>
        <mxCell id="tvVa9TLekLzWIUIdBBqW-5" value="Saucer HurryUp Mode" style="rounded=1;whiteSpace=wrap;html=1;" vertex="1" parent="1">
          <mxGeometry x="550" y="270" width="120" height="60" as="geometry" />
        </mxCell>
      </root>
    </mxGraphModel>
  </diagram>
</mxfile>
